<svg width="88" height="102" viewBox="0 0 88 102" fill="none" xmlns="http://www.w3.org/2000/svg">
<path d="M17 8C17 6.89543 17.8954 6 19 6H21C22.1046 6 23 6.89543 23 8V12H17V8Z" fill="black"/>
<path d="M41 8C41 6.89543 41.8954 6 43 6H45C46.1046 6 47 6.89543 47 8V12H41V8Z" fill="black"/>
<path d="M65 8C65 6.89543 65.8954 6 67 6H69C70.1046 6 71 6.89543 71 8V12H65V8Z" fill="black"/>
<path d="M85 12C86.6569 12 88 13.3431 88 15V36H0V15C3.22133e-07 13.3431 1.34315 12 3 12H85Z" fill="black"/>
<path d="M88 99C88 100.657 86.6569 102 85 102H3C1.34315 102 0 100.657 0 99V40H88V99ZM13 75.7139C11.8956 75.7139 11.0002 76.6095 11 77.7139V83.7139C11 84.8184 11.8954 85.7139 13 85.7139H19C20.1046 85.7139 21 84.8184 21 83.7139V77.7139C20.9998 76.6095 20.1044 75.7139 19 75.7139H13ZM32 75.7139C30.8956 75.7139 30.0002 76.6095 30 77.7139V83.7139C30 84.8184 30.8954 85.7139 32 85.7139H76C77.1046 85.7139 78 84.8184 78 83.7139V77.7139C77.9998 76.6095 77.1044 75.7139 76 75.7139H32ZM13 56.2861C11.8954 56.2861 11 57.1816 11 58.2861V64.2861C11.0002 65.3905 11.8956 66.2861 13 66.2861H57C58.1044 66.2861 58.9998 65.3905 59 64.2861V58.2861C59 57.1816 58.1046 56.2861 57 56.2861H13ZM70 56.2861C68.8954 56.2861 68 57.1816 68 58.2861V64.2861C68.0002 65.3905 68.8956 66.2861 70 66.2861H76C77.1044 66.2861 77.9998 65.3905 78 64.2861V58.2861C78 57.1816 77.1046 56.2861 76 56.2861H70Z" fill="black"/>
</svg>
