<svg width="84" height="92" viewBox="0 0 84 92" fill="none" xmlns="http://www.w3.org/2000/svg">
<path d="M33.7598 6.09081C38.3846 1.7223 45.6154 1.72231 50.2402 6.09081L76.3525 30.7558C77.4234 31.7674 78.2501 32.8869 78.8544 34.0652C79.1232 34.5892 79.4081 35.1057 79.7208 35.6047C81.1649 37.91 82 40.6357 82 43.5566V75C82 83.2843 75.2843 90 67 90H60C55.5817 90 52 86.4183 52 82V63.9697C52 59.5514 48.4183 55.9697 44 55.9697H40C35.5817 55.9697 32 59.5514 32 63.9697V82C32 86.4183 28.4183 90 24 90H17C8.71573 90 2 83.2843 2 75V43.5566C2 40.6359 2.83443 37.91 4.2783 35.6048C4.5909 35.1057 4.87581 34.5892 5.14462 34.0652C5.74915 32.8869 6.57646 31.7675 7.64746 30.7558L33.7598 6.09081Z" fill="black"/>
<path d="M33.7598 6.09081L32.3864 4.63687L32.3864 4.63687L33.7598 6.09081ZM50.2402 6.09081L51.6136 4.63687L51.6136 4.63687L50.2402 6.09081ZM76.3525 30.7558L77.7259 29.3019L77.7259 29.3019L76.3525 30.7558ZM82 43.5566L84 43.5566L84 43.5566L82 43.5566ZM2 43.5566L0 43.5566V43.5566H2ZM7.64746 30.7558L6.27411 29.3019L6.27411 29.3019L7.64746 30.7558ZM4.2783 35.6048L2.58332 34.5431L4.2783 35.6048ZM5.14462 34.0652L3.36515 33.1523L5.14462 34.0652ZM78.8544 34.0652L77.0748 34.9779L78.8544 34.0652ZM79.7208 35.6047L81.4157 34.543L79.7208 35.6047ZM33.7598 6.09081L35.1331 7.54474C38.9872 3.90433 45.0128 3.90433 48.8669 7.54474L50.2402 6.09081L51.6136 4.63687C46.2179 -0.45971 37.7821 -0.45972 32.3864 4.63687L33.7598 6.09081ZM50.2402 6.09081L48.8669 7.54474L74.9792 32.2098L76.3525 30.7558L77.7259 29.3019L51.6136 4.63687L50.2402 6.09081ZM76.3525 30.7558L74.9792 32.2098C75.8861 33.0664 76.575 34.0032 77.0748 34.9779L78.8544 34.0652L80.634 33.1525C79.9253 31.7705 78.9607 30.4683 77.7259 29.3019L76.3525 30.7558ZM79.7208 35.6047L78.0259 36.6665C79.2766 38.6629 80 41.0222 80 43.5566L82 43.5566L84 43.5566C84 40.2493 83.0533 37.1571 81.4157 34.543L79.7208 35.6047ZM82 43.5566H80V75H82H84V43.5566H82ZM82 75H80C80 82.1797 74.1797 88 67 88V90V92C76.3888 92 84 84.3888 84 75H82ZM67 90V88H60V90V92H67V90ZM52 82H54V63.9697H52H50V82H52ZM44 55.9697V53.9697H40V55.9697V57.9697H44V55.9697ZM32 63.9697H30V82H32H34V63.9697H32ZM24 90V88H17V90V92H24V90ZM17 90V88C9.8203 88 4 82.1797 4 75H2H0C0 84.3888 7.61116 92 17 92V90ZM2 75H4V43.5566H2H0V75H2ZM2 43.5566L4 43.5566C4 41.0221 4.72298 38.6626 5.97327 36.6664L4.2783 35.6048L2.58332 34.5431C0.945877 37.1574 3.90877e-06 40.2498 0 43.5566L2 43.5566ZM5.14462 34.0652L6.9241 34.9781C7.42399 34.0038 8.11337 33.0669 9.02081 32.2098L7.64746 30.7558L6.27411 29.3019C5.03954 30.4681 4.07432 31.77 3.36515 33.1523L5.14462 34.0652ZM7.64746 30.7558L9.02081 32.2098L35.1331 7.54474L33.7598 6.09081L32.3864 4.63687L6.27411 29.3019L7.64746 30.7558ZM32 82H30C30 85.3137 27.3137 88 24 88V90V92C29.5228 92 34 87.5228 34 82H32ZM40 55.9697V53.9697C34.4772 53.9697 30 58.4469 30 63.9697H32H34C34 60.656 36.6863 57.9697 40 57.9697V55.9697ZM60 90V88C56.6863 88 54 85.3137 54 82H52H50C50 87.5228 54.4772 92 60 92V90ZM52 63.9697H54C54 58.4469 49.5228 53.9697 44 53.9697V55.9697V57.9697C47.3137 57.9697 50 60.656 50 63.9697H52ZM4.2783 35.6048L5.97327 36.6664C6.32449 36.1056 6.63758 35.5366 6.9241 34.9781L5.14462 34.0652L3.36515 33.1523C3.11404 33.6417 2.8573 34.1057 2.58332 34.5431L4.2783 35.6048ZM78.8544 34.0652L77.0748 34.9779C77.3614 35.5366 77.6746 36.1057 78.0259 36.6665L79.7208 35.6047L81.4157 34.543C81.1417 34.1056 80.885 33.6417 80.634 33.1525L78.8544 34.0652Z" fill="black"/>
</svg>
