<svg width="85" height="84" viewBox="0 0 85 84" fill="none" xmlns="http://www.w3.org/2000/svg">
<path d="M82.5 55C82.5 61.2025 82.1642 67.2072 79.5557 71.8623C76.7892 76.7993 71.7902 79.7398 63.7686 80.6074C63.6793 80.6171 63.5897 80.6221 63.5 80.6221H31.0957C30.0561 80.707 28.2875 80.7337 26.6768 79.9121C25.7796 79.4544 24.9408 78.7379 24.3477 77.6895C23.7641 76.6577 23.5 75.4499 23.5 74.1221V33.1221C23.5001 32.2502 23.9547 31.4411 24.6992 30.9873C27.0287 29.5677 29.8548 27.5646 35.9561 23.1533C35.9573 23.1523 35.9587 23.1515 35.96 23.1504C36.0033 23.1138 36.0695 23.0581 36.1543 22.9854C36.324 22.8399 36.5705 22.6268 36.8701 22.3604C37.4717 21.8254 38.2794 21.0846 39.1123 20.2568C39.951 19.4233 40.7842 18.5317 41.4512 17.6943C42.1603 16.8041 42.5166 16.177 42.6221 15.8516C42.7635 15.415 42.8793 14.6202 42.9238 13.502C42.9665 12.4314 42.9392 11.2362 42.8789 10.0967C42.819 8.96314 42.7279 7.91732 42.6523 7.15332C42.6147 6.77226 42.5818 6.46341 42.5576 6.25195C42.5456 6.1466 42.5358 6.06549 42.5293 6.01172C42.5261 5.98515 42.5231 5.96488 42.5215 5.95215C42.5207 5.94603 42.5199 5.94118 42.5195 5.93848V5.93555C42.3584 4.65909 43.1925 3.46906 44.4473 3.18457C47.9113 2.39963 51.1072 1.99103 53.8066 3.64648C56.3832 5.22671 57.8722 8.32793 59.3408 12.2441C59.4044 12.4137 59.449 12.5903 59.4746 12.7695C59.7888 14.9723 60.0792 16.5638 60.126 18.0156C60.1774 19.6139 59.9512 21.062 59.4297 23.2119C59.3652 23.4777 59.2569 23.731 59.1104 23.9619V23.9629C59.11 23.9634 59.109 23.9639 59.1084 23.9648C59.1072 23.9668 59.1058 23.97 59.1035 23.9736C59.0986 23.9813 59.0914 23.9931 59.082 24.0078C59.0632 24.0374 59.0354 24.081 59 24.1367C58.9292 24.2481 58.8268 24.4086 58.7012 24.6055C58.4499 24.9992 58.1039 25.5392 57.7266 26.125C57.3115 26.7695 56.848 27.4838 56.4277 28.1221H73.5C76.2396 28.1221 78.6589 28.648 80.3242 30.4785C81.8836 32.1928 82.288 34.56 82.4893 36.7734C82.4961 36.8487 82.5 36.9244 82.5 37V55Z" stroke="black" stroke-width="5" stroke-linejoin="round"/>
<rect x="2" y="31" width="14" height="49" stroke="black" stroke-width="4" stroke-linejoin="round"/>
</svg>
