<svg width="88" height="90" viewBox="0 0 88 90" fill="none" xmlns="http://www.w3.org/2000/svg">
<path d="M86.2041 0.0107422C87.2128 0.113005 88 0.964349 88 2V73C88 82.3888 80.3888 90 71 90H2C0.895431 90 0 89.1046 0 88V17C1.09531e-06 7.61116 7.61116 1.93277e-07 17 0H86L86.2041 0.0107422ZM23 64C21.3431 64 20 65.3431 20 67V71C20 72.6569 21.3431 74 23 74H65C66.6569 74 68 72.6569 68 71V67C68 65.3431 66.6569 64 65 64H23ZM23 42C21.3431 42 20 43.3431 20 45V49C20 50.6569 21.3431 52 23 52H65C66.6569 52 68 50.6569 68 49V45C68 43.3431 66.6569 42 65 42H23ZM23 20C21.3431 20 20 21.3431 20 23V27C20 28.6569 21.3431 30 23 30H65C66.6569 30 68 28.6569 68 27V23C68 21.3431 66.6569 20 65 20H23Z" fill="black"/>
</svg>
