<svg width="88" height="101" viewBox="0 0 88 101" fill="none" xmlns="http://www.w3.org/2000/svg">
<path d="M40 2C40 0.895431 40.8954 0 42 0H46C47.1046 0 48 0.895431 48 2V11H40V2Z" fill="black"/>
<mask id="path-2-inside-1_16_38" fill="white">
<path d="M23 93C23 91.8954 23.8954 91 25 91H64C65.1046 91 66 91.8954 66 93V96C66 98.7614 63.7614 101 61 101H28C25.2386 101 23 98.7614 23 96V93Z"/>
</mask>
<path d="M23 93C23 91.8954 23.8954 91 25 91H64C65.1046 91 66 91.8954 66 93V96C66 98.7614 63.7614 101 61 101H28C25.2386 101 23 98.7614 23 96V93Z" fill="black" stroke="black" stroke-width="10" mask="url(#path-2-inside-1_16_38)"/>
<path d="M7 44C7 23.5655 23.5655 7 44 7V7C64.4345 7 81 23.5655 81 44V78H7V44Z" fill="black"/>
<path d="M0 78C0 76.8954 0.895431 76 2 76H86C87.1046 76 88 76.8954 88 78V81C88 83.7614 85.7614 86 83 86H5C2.23858 86 0 83.7614 0 81V78Z" fill="black"/>
</svg>
