<svg width="108" height="90" viewBox="0 0 108 90" fill="none" xmlns="http://www.w3.org/2000/svg">
<path d="M68.1421 39.1421C64.3914 42.8929 59.3043 45 54 45C48.6957 45 43.6086 42.8929 39.8579 39.1421C36.1071 35.3914 34 30.3043 34 25C34 19.6957 36.1071 14.6086 39.8579 10.8579C43.6086 7.10714 48.6957 5 54 5C59.3043 5 64.3914 7.10714 68.1421 10.8579C71.8929 14.6086 74 19.6957 74 25C74 30.3043 71.8929 35.3914 68.1421 39.1421L68.1421 39.1421Z" stroke="black" stroke-width="10" stroke-linecap="round" stroke-linejoin="round"/>
<path d="M5 81.7136C5 68.4852 16.4287 58.152 29.6281 59.028C37.6498 59.5604 46.3281 59.9911 53.5 60C60.9717 60.0093 70.0461 59.5649 78.3744 59.0155C91.5753 58.1446 103 68.4826 103 81.7123V81.7123C103 83.528 101.528 85 99.7123 85H8.28638C6.47136 85 5 83.5286 5 81.7136V81.7136Z" stroke="black" stroke-width="10"/>
</svg>
