<svg width="96" height="124" viewBox="0 0 96 124" fill="none" xmlns="http://www.w3.org/2000/svg">
<path d="M88.8192 36.4513C92.2789 46.4725 89.297 57.2789 84.8686 66.9112C72.1846 94.5 69.6868 94.5 48 94.5C26.3108 94.5 23.4385 94.5 10.6512 66.902C6.1942 57.2828 3.21427 46.4627 6.73907 36.4643C12.9589 18.821 29.0857 5 48 5C66.9096 5 82.7304 18.8142 88.8192 36.4513Z" stroke="black" stroke-width="10" stroke-linejoin="round"/>
<mask id="path-2-inside-1_16_31" fill="white">
<path d="M27 107C27 105.895 27.8954 105 29 105H68C69.1046 105 70 105.895 70 107V110C70 112.761 67.7614 115 65 115H32C29.2386 115 27 112.761 27 110V107Z"/>
</mask>
<path d="M27 107C27 105.895 27.8954 105 29 105H68C69.1046 105 70 105.895 70 107V110C70 112.761 67.7614 115 65 115H32C29.2386 115 27 112.761 27 110V107Z" fill="black" stroke="black" stroke-width="10" mask="url(#path-2-inside-1_16_31)"/>
</svg>
